# xmcd
#
# Track frame offsets:
#	150
#	17358
#	30393
#	46679
#	60895
#	74656
#	93119
#	113168
#	133440
#	154959
#	172911
#	188925
#
# Disc length: 2775 seconds
#
# Revision: 0
# Processed by: cddbd v1.5.2PL0 Copyright (c) Steve Scherf et al.
# Submitted via: dBpowerAMP V4.0
#
DISCID=930ad50c
DTITLE=CaféBrasil - ViníciusDeMoraes
DYEAR=1900
DGENRE=
TTITLE0=O AmorEmPaz
TTITLE1=TardeEmItapoã
TTITLE2=CartaAoTom
TTITLE3=PelaLuzDosOlhosTeus
TTITLE4=SóDançoSamba
TTITLE5=SeTodosFossemIguais A Vc
TTITLE6=Insensatez
TTITLE7=EuSeiQueVouTeAmar
TTITLE8=A Felicidade
TTITLE9=GarotaDeIpanema
TTITLE10=ChegaDeSaudade
TTITLE11=Ela É Carioca
EXTD=
EXTT0=
EXTT1=
EXTT2=
EXTT3=
EXTT4=
EXTT5=
EXTT6=
EXTT7=
EXTT8=
EXTT9=
EXTT10=
EXTT11=
PLAYORDER=
